<svg version="1" xmlns="http://www.w3.org/2000/svg" width="620" height="620" viewBox="0 0 465.000000 465.000000"><path d="M385.8 10.9c-.9 1.1-2.2 2.9-2.8 4.1-4.1 7.7-11.4 13.5-26.4 21.1-15.6 7.8-29.8 15.6-42.3 23.1-8.2 4.8-10.8 5.4-9.6 2 .6-1.5.5-1.5-1.4.1-1.8 1.6-2.6 1.7-6.4.7-4.6-1.3-5.3-1.4-15.8-2.5-7.4-.8-21.6-.9-22.8-.2-1.1.7-15 2-19.8 1.9-15.8-.4-29.5-.3-32 .2-1.6.3-4.6.9-6.5 1.2-1.9.3-5.2 1-7.2 1.5-2.6.7-5.1.6-7.9-.1-2.3-.6-8.9-1-14.8-.9l-10.6.2-18.5-7.1c-39.2-14.9-39.6-15.1-48.1-23.6-4.3-4.2-8-7.6-8.3-7.6-.3 0-.3 3.6-.1 8.1.4 7.3.3 8-1.2 6.8-1.4-1.2-1.5-1.1-.8 1.1.4 1.4 1.4 3.8 2.2 5.3.8 1.6 1.6 5.7 1.9 9 .5 7.2.9 10.1 2.4 17.7.6 3 1.3 6.6 1.6 8 .5 2.4 8.6 35 10 39.7.4 1.4 0 2.8-1 3.8-1.5 1.6-4.2 9.4-5.2 15.2-.2 1.5-.9 5-1.4 7.8-.5 2.7-1.2 7.1-1.5 9.7-.5 4.2-1.8 8.3-4.5 14.3-2.3 5.2-7.1 22.2-9 32.5-1.2 6.3-2.4 12.4-2.6 13.5-.6 2.7-4.2 24.1-5 28.9-.3 2.1-.8 4.8-1 6-.2 1.1-.7 3.4-.9 5.1-3.2 18.5-14.3 42.1-21.7 46.2-1.4.7-1.7 1.2-.8 1.3 2 0 13.8-12.3 18.8-19.7 2.3-3.4 5.8-9.4 7.7-13.2 2-3.9 3.7-7.1 3.8-7.1.1 0 .2 2.8.3 6.3.1 7.4 1.3 30.6 1.9 36 .2 2 .7 7.9 1 13 .3 5 .7 10.8.9 12.7 2.7 24.8 2.7 57.5 0 64.4-.3.9-.4 1.6 0 1.6.6 0 3.4-9.1 4.2-13.5.2-1.4.6-3.7.9-5.2.4-2.3 1.7-20.6 1.8-25.1.1-2 1.7-1.3 1.7.8 0 6.2 15.8 49.9 19.6 54.1 2.6 2.9 1.5 4.4-4.8 6.8-13.8 5.2-20.1 9.1-28 17.2-4.3 4.3-7.8 8.2-7.8 8.7 0 .4.6 1.7 1.4 2.7 1.6 2.2 2 1.9 7.1-5 8.2-11.1 20.1-20.5 25.9-20.5 1.7 0 4.8-.4 6.8-.9 2.3-.5 4-.5 4.7.2.7.7-1.4 2.4-6.6 5.3-4.1 2.4-9.1 5.5-10.9 6.9-3 2.3-10.4 11.2-11.5 14-.2.5-3 4.9-6.2 9.7-3.1 4.8-5.7 9-5.7 9.3 0 .2 80.1.4 178 .4 132.9 0 178-.3 178-1.1 0-3.2-16.8-26.2-26.4-36.1-3.1-3.3-5.6-6.1-5.6-6.4 0-.2 5.9 2.6 13.1 6.4 15.3 8 19.1 11.3 29.6 26.5 7.3 10.6 7.5 10.8 11.4 10.8 4.1 0 4.5-.3 2.9-2.3-.5-.7-3.3-4.1-6.2-7.7-11.4-14.1-36.1-35.6-46.5-40.5-4.3-2.1-5.1-3.6-1.4-2.5 3.7 1 15.3 2.2 25.4 2.5 8.7.2 11.1-.9 12.3-5.7.7-3.2-.6-3.9-11.1-6.3-11.2-2.5-13-2.7-28.9-3.1-8.7-.2-16.1-.6-16.5-1-.3-.4-.1-.4.5-.1 1.2.7 10-5 14.4-9.4 6-5.7 23-27.6 23-29.6 0-.4.9-1.6 1.9-2.7 1.1-1.2 3.6-5.4 5.6-9.5 3.2-6.2 3.6-8.1 3.1-11.7-1-7.6-13-33.9-22.8-50.3-2.1-3.4-3.8-6.7-3.8-7.2s-.4-.9-.8-.9c-1.3 0-4.1-5.6-4.7-9.1-.2-1.9-.7-6.5-1-10.3-.3-3.8-.7-7.1-.9-7.5-.2-.3-.7-4.4-1-9.1-.4-4.7-.9-9.2-1.1-10-.2-.8-.6-4.2-1-7.5-.3-3.3-.7-7.6-1-9.5-.3-1.9-.7-5.8-1-8.5-.2-2.8-.7-6.4-.9-8-.3-1.7-.8-5-1.1-7.5-1.3-9.5-1.8-13.1-3.1-21.2-.2-1.5-1.3-6.5-2.4-11-1.1-4.6-2-8.6-2-9 0-.4 1.6-1.8 3.7-3.2l3.6-2.5-2.6-1.2c-1.5-.7-2.3-1.7-2-2.5.3-.9-.2-1.4-1.2-1.4-1.2 0-1.5-.5-1-1.8.9-1.9 3-12.5 4-19.2.3-2.5.8-5.2 1-6 .3-.8.7-3.5.9-6 .3-2.5.7-5.4 1-6.5.3-1.9.8-6.9 2.1-23.5.3-3.6.8-15.5 1-26.5.2-11 .8-21.4 1.4-23.1.8-2.8.7-3.1-1-2.7-1.5.4-1.9 0-2-2.1-.1-1.4-.3-3.1-.4-3.6-.1-.6-.3-2.6-.4-4.5-.1-4-.9-4.4-3.3-1.6zm32.7 314.4c4.2 7.6 4.3 10.4.4 19.4-3.6 8.6-9.3 15.4-6.6 8 .7-1.9 1.1-9.7 1.2-19.4 0-8.9.3-15.9.7-15.5.3.4 2.3 3.8 4.3 7.5zm-88.6 79.1c1.2.8-2.5 9-6.6 14.4-1.4 1.8-2.3 3.6-2 3.8.5.6 8.8-11.6 10.7-15.6 1.1-2.5 1.1-2.5 13.7-2.3 6.9.1 12.8.5 13.1.7.2.3-.6 1-2 1.5-3.4 1.3-15.5 10.5-20 15.2-4.1 4.3-5.6 4.4-15.8 1.5-2.5-.8-4.7-1.3-5-1.3-.3 0-1.5-.3-2.6-.7-2-.6-1.8-1.1 3.2-8.8 3-4.5 5.4-8.6 5.4-9.1 0-.9 6.1-.4 7.9.7zm31.8 17.5c-.8 2.2-1.9 3.1-4.1 3.4-1.7.3-3.5.1-4-.4-.6-.6-.4-.9.5-.9.7 0 2.8-1.1 4.4-2.5 3.9-3.2 4.6-3.1 3.2.4z"/></svg>